<svg width="48" height="36" viewBox="0 0 48 36" fill="none" xmlns="http://www.w3.org/2000/svg">
<path d="M38.0884 5.30068C38.0884 5.30068 32.4453 4.16339 29.1543 6.00219V0L21.0134 0V3.80518C21.0134 3.80518 21.1474 7.01516 16.0599 7.6529C10.9724 8.29062 0 11.507 0 22.4028L0 35.1353C0 35.1353 4.98181 36.0026 7.38119 31.3875C7.38119 31.3875 11.8869 35.7453 21.0104 33.0489C21.0104 33.0489 26.6325 30.9485 28.2922 25.1642C29.9517 19.3799 26.9005 12.8887 34.4103 12.2531C34.4103 12.2531 39.9362 11.626 39.8682 19.4714C39.8002 27.3166 38.6471 33.8842 44.9182 33.9672L47.9966 33.9587V18.6773C47.9966 18.6773 48.4759 8.19601 38.0884 5.30068ZM21.0857 20.4927L21.0533 20.4661C21.0746 20.6656 21.0854 20.866 21.0857 21.0667C21.0857 22.1331 20.7812 23.1766 20.2089 24.0706C19.6365 24.9647 18.8211 25.6709 17.8615 26.1035C16.9019 26.536 15.8393 26.6765 14.8027 26.5076C13.7661 26.3389 12.8 25.8681 12.0216 25.1525C11.2431 24.4371 10.6858 23.5075 10.4172 22.4765C10.1487 21.4455 10.1804 20.3576 10.5086 19.3446C10.8367 18.3316 11.4472 17.4372 12.266 16.7697C13.0848 16.1022 14.0767 15.6904 15.1214 15.5843L15.0878 15.5566C19.4187 15.0518 21.3661 14.3141 21.3661 14.3141C21.3661 14.3141 20.8231 17.3252 21.0857 20.4927Z" fill="black"/>
<path d="M0 1.59998H3.01307C3.01307 1.59998 6.46792 1.67498 7.61955 4.52848C7.61955 4.52848 8.01424 5.53182 7.9996 6.56126C7.98493 7.59068 7.9996 7.8657 7.9996 7.8657C7.9996 7.8657 2.44563 9.27021 0 14.4L0 1.59998Z" fill="black"/>
</svg>
